<?xml version="1.0" encoding="UTF-8"?>
<!-- Generated by Pixelmator Pro 3.3.8 -->
<svg width="231" height="46" viewBox="0 0 231 46" xmlns="http://www.w3.org/2000/svg">
    <path id="Path" fill="#000000" stroke="none" d="M 17.812895 24.10309 C 22.52697 25.281208 27.261827 26.391737 31.947346 27.686831 C 34.305702 28.331779 36.533192 29.421774 38.886879 30.096357 C 40.191357 30.503654 41.560986 30.661081 42.923855 30.560379 C 45.48468 30.305876 46.71986 28.506199 46.181526 26.012009 C 45.857159 24.472759 45.293144 22.976736 44.730568 21.086126 C 46.928364 21.979097 48.921288 22.75881 50.876797 23.583233 C 54.237755 25.125168 57.516098 26.805939 60.940933 28.135231 C 63.064552 29.002548 65.31636 29.514702 67.606209 29.651167 C 70.383934 29.754787 71.451248 28.121006 70.973137 25.373096 C 70.766891 24.176414 70.427559 22.989122 70.039734 21.33864 C 71.00576 21.632586 71.662918 21.766506 72.270218 22.024178 C 77.017822 24.017445 81.802902 26.158352 86.652885 28.0159 C 88.8694 28.783577 91.16375 29.304672 93.494415 29.56974 C 94.096977 29.664688 94.847893 28.689692 95.530853 28.210152 C 95.000374 27.644142 94.397301 27.150843 93.737343 26.743109 C 92.127571 25.973156 90.414406 25.409628 88.765656 24.694281 C 84.206749 22.659876 79.576607 20.563633 74.970406 18.572397 C 74.83593 18.517069 74.697609 18.471594 74.556541 18.436319 C 67.897308 16.303801 65.310623 18.649773 67.360382 24.91518 C 67.47506 25.434616 67.554428 25.961216 67.597939 26.491371 C 65.687691 25.765188 64.010918 25.227638 62.434433 24.503426 C 58.763065 22.811346 55.235615 20.848364 51.427567 19.316969 C 49.082668 18.404457 46.627258 17.806498 44.125359 17.538685 C 41.470779 17.231752 40.405506 18.724127 41.072796 21.299383 C 41.323162 22.28031 41.785099 23.203466 42.091084 24.152662 C 42.397068 25.101858 42.642704 25.920061 43.104828 27.420273 C 41.494095 26.91338 40.315964 26.616379 39.179382 26.1842 C 34.472904 24.379635 29.791872 22.477839 25.051626 20.75906 C 23.129887 20.177155 21.175188 19.710258 19.197912 19.36087 C 20.845577 18.284212 22.401289 17.405655 23.808771 16.311392 C 24.945927 15.430941 25.964664 14.407372 26.839724 13.266056 C 27.116602 12.659851 27.059311 11.953426 26.688379 11.399754 C 26.111664 11.07399 25.407337 11.070278 24.827219 11.389935 C 20.05439 14.897417 14.599489 17.365755 8.814219 18.635786 C 8.17183 18.731173 7.555015 18.954088 7.000058 19.291397 C 6.405453 19.724117 5.632092 20.391878 5.622396 20.967392 C 5.612694 21.542887 6.37816 22.210176 6.955881 22.655518 C 9.607892 24.713404 12.415794 26.55287 14.95089 28.774546 C 17.89002 31.323088 20.583338 34.146729 23.374361 36.864281 C 24.53196 37.998287 25.806778 38.259903 26.975088 37.077339 C 28.143398 35.894779 27.681875 34.647747 26.66987 33.617672 C 24.445139 31.353794 22.192863 29.136189 19.919271 26.92535 C 19.164701 26.188923 18.323862 25.550261 17.528763 24.878309 Z"/>
    <path id="FREE" fill="#000000" fill-rule="evenodd" stroke="none" d="M 136.087891 39.882813 C 135.911789 39.87989 135.737946 39.853554 135.566406 39.804688 C 135.108963 39.674381 134.765747 39.625355 134.537109 39.658203 C 134.404739 37.5023 134.181351 35.232086 133.869141 32.847656 C 133.556915 30.463226 133.301788 27.833506 133.103516 24.958984 C 133.07077 24.86101 133.063705 24.837732 133.080078 24.886719 C 133.096451 24.935707 133.112549 24.977112 133.128906 25.009766 C 133.112549 24.977112 133.071381 24.845804 133.005859 24.617188 C 132.646149 24.12747 132.359009 23.760458 132.146484 23.515625 C 131.93396 23.270792 131.729355 23.04936 131.533203 22.853516 C 131.337051 22.657669 131.125351 22.438181 130.896484 22.193359 C 130.667633 21.94854 130.34111 21.565302 129.916016 21.042969 C 130.013916 20.912224 130.267532 20.797543 130.675781 20.699219 C 131.084045 20.600895 131.531601 20.470362 132.021484 20.306641 C 131.857269 19.1961 131.725723 18.158903 131.626953 17.195313 C 131.528183 16.23172 131.430756 15.291546 131.332031 14.376953 C 131.233307 13.46236 131.133865 12.556465 131.035156 11.658203 C 130.936432 10.759945 130.820923 9.803581 130.689453 8.791016 C 130.395447 8.791248 129.637146 8.768734 128.412109 8.720703 C 127.187057 8.672672 125.806854 8.633015 124.271484 8.601563 C 124.010017 8.438438 123.805298 8.299763 123.658203 8.185547 C 123.541901 8.09523 123.493515 7.875031 123.509766 7.529297 C 122.928841 7.712681 122.325989 7.896755 121.675781 8.087891 C 120.728661 8.366306 119.773994 8.645397 118.810547 8.923828 C 117.847092 9.202259 116.973328 9.423939 116.189453 9.587891 C 116.058815 9.620663 115.895172 9.668888 115.699219 9.734375 C 115.503273 9.799866 115.307281 9.866154 115.111328 9.931641 C 114.882736 10.029823 114.638229 10.110241 114.376953 10.175781 C 114.41008 10.76376 114.427567 11.164619 114.427734 11.376953 C 114.427902 11.589287 114.418472 11.826542 114.402344 12.087891 C 114.386215 12.349239 114.371376 12.750046 114.355469 13.289063 C 114.339561 13.828079 114.365303 14.733862 114.431641 16.007813 C 114.399078 16.138506 114.38958 16.41519 114.40625 16.839844 C 114.42292 17.2645 114.447418 17.722914 114.480469 18.212891 C 114.513603 18.800867 114.564987 19.437096 114.630859 20.123047 C 115.218788 20.02458 115.781487 19.861908 116.320313 19.632813 C 116.859131 19.403719 117.470482 19.1422 118.15625 18.847656 C 118.842018 18.553112 119.651299 18.232409 120.582031 17.888672 C 121.512764 17.544933 122.663406 17.210566 124.035156 16.882813 C 124.231308 17.078657 124.198654 17.290657 123.9375 17.519531 C 123.676346 17.748405 123.293236 17.994125 122.787109 18.255859 C 122.280975 18.517595 121.70903 18.795338 121.072266 19.089844 C 120.435493 19.384348 119.840233 19.694376 119.285156 20.021484 C 118.566719 20.316055 117.969566 20.586655 117.496094 20.832031 C 117.022614 21.077408 116.632462 21.288837 116.322266 21.46875 C 116.012077 21.648664 115.742279 21.77948 115.513672 21.861328 C 115.285072 21.943176 115.056786 21.984194 114.828125 21.984375 C 114.828377 22.311043 114.843613 22.900688 114.876953 23.75 C 114.910294 24.599312 114.95208 25.578823 115.001953 26.689453 C 115.051834 27.800085 115.102341 28.984556 115.152344 30.242188 C 115.202339 31.499821 115.259949 32.691406 115.326172 33.818359 C 115.392403 34.945313 115.459335 35.96624 115.525391 36.880859 C 115.591454 37.795479 115.656982 38.464054 115.722656 38.888672 C 115.396042 38.954266 115.045563 39.004147 114.669922 39.037109 C 114.294281 39.070072 113.909584 39.087582 113.517578 39.087891 L 113.515625 36.146484 C 113.513847 33.892475 113.472061 31.68009 113.388672 29.507813 C 113.30529 27.335537 113.180847 25.056423 113.015625 22.671875 C 112.591087 22.835546 112.27282 22.959179 112.060547 23.041016 C 111.848274 23.12285 111.675568 23.180119 111.544922 23.212891 C 111.414284 23.245661 111.275925 23.254499 111.128906 23.238281 C 110.981895 23.222065 110.760849 23.180334 110.466797 23.115234 C 110.531921 22.853848 110.474586 22.724466 110.294922 22.724609 C 110.115257 22.724752 110.025543 22.625689 110.025391 22.429688 C 110.123154 22.135609 110.287079 21.914761 110.515625 21.767578 C 110.744179 21.620398 110.997787 21.505714 111.275391 21.423828 C 111.552994 21.34194 111.829834 21.252518 112.107422 21.154297 C 112.38501 21.056078 112.620583 20.892887 112.816406 20.664063 C 112.782753 19.422752 112.75016 18.360495 112.716797 17.478516 C 112.683434 16.596539 112.657516 15.80584 112.640625 15.103516 C 112.623734 14.401192 112.590546 13.714554 112.541016 13.044922 C 112.491486 12.37529 112.451256 11.647259 112.417969 10.863281 C 112.0914 10.994205 111.796501 11.053238 111.535156 11.037109 C 111.273811 11.020985 111.061928 10.914619 110.898438 10.71875 C 110.669563 10.457596 110.554947 10.162605 110.554688 9.835938 C 110.554428 9.50927 110.57093 9.297245 110.603516 9.199219 C 110.570824 9.166576 110.64463 9.102051 110.824219 9.003906 C 111.003815 8.905766 111.190796 8.80714 111.386719 8.708984 C 111.61528 8.578136 111.892189 8.44733 112.21875 8.316406 C 112.185753 7.891762 112.20253 7.500011 112.267578 7.140625 C 112.33268 6.846573 112.430084 6.568081 112.560547 6.306641 C 112.691002 6.045204 112.903259 5.914295 113.197266 5.914063 C 113.295212 5.848652 113.41024 5.881153 113.541016 6.011719 C 113.639091 6.109642 113.737701 6.305687 113.835938 6.599609 C 113.934166 6.893536 114.032417 7.317787 114.130859 7.873047 C 115.11071 7.67627 115.975357 7.49596 116.726563 7.332031 C 117.477768 7.168102 118.196938 7.005676 118.882813 6.841797 C 119.568687 6.677921 120.269753 6.504456 120.988281 6.324219 C 121.706802 6.143982 122.5411 5.956516 123.488281 5.759766 C 124.076233 5.69397 124.532768 5.619034 124.859375 5.537109 C 125.185974 5.455185 125.439507 5.390942 125.619141 5.341797 C 125.798767 5.292656 125.928123 5.251484 126.009766 5.21875 C 126.091408 5.18602 126.181267 5.186161 126.279297 5.21875 C 126.344864 5.512699 126.394958 5.724827 126.427734 5.855469 C 126.460503 5.986107 126.469406 6.083092 126.453125 6.148438 C 126.436844 6.213783 126.404411 6.280331 126.355469 6.345703 C 126.306519 6.411076 126.232658 6.507927 126.134766 6.638672 C 125.781021 6.775051 125.2649 6.953583 124.650391 7.158203 C 124.962967 7.150082 125.29705 7.147629 125.666016 7.154297 C 126.5317 7.169945 127.414131 7.194607 128.3125 7.226563 C 129.210861 7.258518 130.077103 7.306419 130.910156 7.371094 C 131.74321 7.435768 132.42067 7.483372 132.943359 7.515625 C 136.994415 7.969753 140.187164 8.579884 142.523438 9.345703 C 144.859726 10.111526 146.551651 10.919067 147.597656 11.767578 C 148.643661 12.616089 149.142075 13.46508 149.09375 14.314453 C 149.04541 15.16383 148.677719 15.882156 147.992188 16.470703 C 147.502625 17.026426 146.711105 17.575367 145.617188 18.115234 C 144.52327 18.655104 143.314835 19.152946 141.992188 19.611328 C 140.66954 20.069712 139.348129 20.472357 138.025391 20.816406 C 136.702652 21.160456 135.584442 21.430227 134.669922 21.626953 C 134.997299 22.508698 135.389938 23.193953 135.847656 23.683594 C 136.305389 24.173233 136.89209 24.777992 137.611328 25.496094 C 138.690002 26.344578 139.621765 27.070112 140.40625 27.673828 C 141.190735 28.277544 141.935944 28.823055 142.638672 29.3125 C 143.341385 29.801947 144.05957 30.268564 144.794922 30.708984 C 145.530273 31.149406 146.388687 31.646612 147.369141 32.201172 C 148.676224 32.722805 149.689362 33.096119 150.408203 33.324219 C 151.12706 33.552319 151.682159 33.707706 152.074219 33.789063 C 152.466293 33.870419 152.74292 33.912239 152.90625 33.912109 C 153.06958 33.91198 153.249237 33.960747 153.445313 34.058594 C 153.510803 34.254543 153.365128 34.392658 153.005859 34.474609 C 152.646591 34.556561 152.220474 34.597267 151.730469 34.597656 C 151.240479 34.598045 150.742706 34.57399 150.236328 34.525391 C 149.72995 34.476791 149.36348 34.42062 149.134766 34.355469 C 148.644653 34.225189 148.071487 34.046509 147.417969 33.818359 C 146.76445 33.59021 145.997559 33.27092 145.115234 32.863281 C 144.23291 32.455643 143.243317 31.918802 142.148438 31.25 C 141.053574 30.581196 139.836258 29.723965 138.496094 28.679688 C 137.940414 28.255459 137.434143 27.888098 136.976563 27.578125 C 136.518982 27.268152 136.12764 26.999893 135.800781 26.771484 C 135.441238 26.510433 135.098312 26.281681 134.771484 26.085938 C 134.837128 26.477888 134.926102 27.040478 135.041016 27.775391 C 135.15593 28.510303 135.278763 29.335432 135.410156 30.25 C 135.54155 31.164566 135.682297 32.111908 135.830078 33.091797 C 135.977859 34.071686 136.116684 35.002865 136.248047 35.884766 C 136.379425 36.766666 136.511368 37.55043 136.642578 38.236328 C 136.773788 38.922226 136.888092 39.411156 136.986328 39.705078 C 136.680176 39.82782 136.381378 39.887684 136.087891 39.882813 Z M 208.304688 38.953125 C 208.120178 38.954037 207.957321 38.933388 207.816406 38.890625 C 207.440659 38.776588 207.155243 38.555027 206.958984 38.228516 C 206.893265 37.738564 206.949448 37.355934 207.128906 37.078125 C 207.30835 36.800316 207.545929 36.602848 207.839844 36.488281 C 208.133743 36.373714 208.468063 36.332863 208.84375 36.365234 C 209.219452 36.397606 209.585876 36.478992 209.945313 36.609375 C 210.076187 36.870605 210.15152 37.075668 210.167969 37.222656 C 210.184418 37.369644 210.158966 37.51701 210.09375 37.664063 C 210.028534 37.811115 209.93132 37.965469 209.800781 38.128906 C 209.670242 38.292343 209.538666 38.504189 209.408203 38.765625 C 208.979553 38.888466 208.612213 38.951607 208.304688 38.953125 Z M 164.751953 38.771484 C 163.951477 38.75317 163.238281 38.591759 162.613281 38.289063 C 161.502182 37.750938 160.595886 36.86898 159.892578 35.644531 C 159.18927 34.420082 158.623383 32.893456 158.197266 31.064453 C 157.771149 29.235449 157.394836 27.211319 157.066406 24.990234 C 156.511124 25.056007 156.052567 25.16131 155.693359 25.308594 C 155.334137 25.455879 154.86113 25.726673 154.273438 26.119141 C 154.01207 26.086679 153.913376 25.948177 153.978516 25.703125 C 154.043655 25.458073 154.214798 25.163532 154.492188 24.820313 C 154.769592 24.477091 155.113449 24.118179 155.521484 23.742188 C 155.92952 23.366196 156.328918 23.046801 156.720703 22.785156 C 156.523651 21.445974 156.335129 20.049232 156.154297 18.595703 C 155.97348 17.142174 155.801102 15.754515 155.636719 14.431641 C 155.472336 13.108765 155.348129 11.917076 155.265625 10.855469 C 155.183121 9.793861 155.143021 8.985023 155.142578 8.429688 C 155.338501 8.331532 155.48407 8.258064 155.582031 8.208984 C 155.679993 8.159908 155.786087 8.118694 155.900391 8.085938 C 156.014694 8.053181 156.153076 8.028179 156.316406 8.011719 C 156.479721 7.995255 156.742249 7.970451 157.101563 7.9375 C 157.167023 8.100784 157.208038 8.329056 157.224609 8.623047 C 157.24118 8.917034 157.249817 9.179539 157.25 9.408203 C 158.91568 8.982216 160.416824 8.57275 161.755859 8.179688 C 163.094894 7.786625 164.402069 7.402065 165.675781 7.025391 C 166.949493 6.648712 168.238556 6.271236 169.544922 5.894531 C 170.851303 5.51783 172.289719 5.133476 173.857422 4.740234 C 174.118698 4.674694 174.372147 4.666035 174.617188 4.714844 C 174.862228 4.763649 175.065094 4.84478 175.228516 4.958984 C 175.391937 5.073189 175.506851 5.179394 175.572266 5.277344 C 175.63768 5.37529 175.621414 5.439911 175.523438 5.472656 C 174.739792 5.930611 173.605042 6.43763 172.119141 6.994141 C 170.63324 7.550655 169.032928 8.107368 167.318359 8.664063 C 165.60379 9.220757 163.881287 9.786335 162.150391 10.359375 C 160.41951 10.932415 158.916168 11.480228 157.642578 12.003906 C 157.708511 12.755192 157.759872 13.400475 157.792969 13.939453 C 157.826065 14.47843 157.866516 15.06616 157.916016 15.703125 C 157.965515 16.34009 158.047043 17.123774 158.162109 18.054688 C 158.277191 18.985601 158.449783 20.234909 158.679688 21.802734 C 159.953247 21.246389 160.981873 20.812908 161.765625 20.501953 C 162.549393 20.190998 163.365707 19.904585 164.214844 19.642578 C 165.063965 19.380571 166.069092 19.087351 167.228516 18.759766 C 168.387924 18.432178 169.962875 17.972391 171.955078 17.382813 C 172.118439 17.41535 172.316116 17.521687 172.544922 17.701172 C 172.773727 17.880659 172.960251 18.083948 173.107422 18.3125 C 173.254608 18.54105 173.327942 18.771332 173.328125 19 C 173.328308 19.228666 173.21489 19.408215 172.986328 19.539063 C 171.614441 19.703484 170.268051 19.956734 168.945313 20.300781 C 167.622574 20.644831 166.372925 21.038536 165.197266 21.480469 C 164.021622 21.922403 162.928314 22.371941 161.916016 22.830078 C 160.903702 23.288214 160.004425 23.696684 159.220703 24.056641 C 159.287247 25.591927 159.459488 27.078506 159.738281 28.515625 C 160.01709 29.952744 160.394562 31.25086 160.869141 32.410156 C 161.343735 33.569454 161.899506 34.524559 162.537109 35.275391 C 163.174713 36.026222 163.885803 36.467609 164.669922 36.597656 C 165.029297 36.662704 165.536072 36.719093 166.189453 36.767578 C 166.842819 36.816063 167.610382 36.709297 168.492188 36.447266 C 169.373978 36.185234 170.370346 35.701263 171.480469 34.998047 C 172.590576 34.29483 173.814178 33.209347 175.152344 31.738281 C 176.033737 30.953579 176.670578 30.51042 177.0625 30.412109 C 177.454422 30.313799 177.50267 30.461281 177.208984 30.853516 C 176.327728 31.80155 175.519501 32.69376 174.785156 33.527344 C 174.050812 34.360928 173.293243 35.110962 172.509766 35.78125 C 171.726288 36.451538 170.877182 37.032711 169.962891 37.523438 C 169.048615 38.014164 167.987808 38.357731 166.779297 38.554688 C 166.050537 38.712475 165.374542 38.785728 164.751953 38.771484 Z M 188.751953 38.751953 C 187.951477 38.733639 187.238281 38.572227 186.613281 38.269531 C 185.502182 37.731407 184.595886 36.851402 183.892578 35.626953 C 183.189285 34.402504 182.623383 32.875877 182.197266 31.046875 C 181.771149 29.217871 181.394836 27.191786 181.066406 24.970703 C 180.511124 25.036476 180.052582 25.14373 179.693359 25.291016 C 179.334137 25.438299 178.86113 25.707142 178.273438 26.099609 C 178.012085 26.06715 177.913376 25.928646 177.978516 25.683594 C 178.043655 25.438541 178.214783 25.144003 178.492188 24.800781 C 178.769577 24.45756 179.113449 24.098648 179.521484 23.722656 C 179.929535 23.346666 180.328903 23.027269 180.720703 22.765625 C 180.523636 21.426443 180.335114 20.029701 180.154297 18.576172 C 179.97348 17.122643 179.801086 15.734983 179.636719 14.412109 C 179.472336 13.089233 179.348129 11.897545 179.265625 10.835938 C 179.183105 9.77433 179.143005 8.965492 179.142578 8.410156 C 179.338501 8.312 179.48407 8.238529 179.582031 8.189453 C 179.679993 8.140373 179.786087 8.099163 179.900391 8.066406 C 180.014709 8.033649 180.153091 8.008648 180.316406 7.992188 C 180.479736 7.975723 180.742249 7.95092 181.101563 7.917969 C 181.167023 8.081249 181.208054 8.311481 181.224609 8.605469 C 181.24118 8.899456 181.249817 9.160004 181.25 9.388672 C 182.915665 8.962685 184.41684 8.553219 185.755859 8.160156 C 187.094894 7.767094 188.402069 7.382534 189.675781 7.005859 C 190.949478 6.629181 192.238541 6.251705 193.544922 5.875 C 194.851303 5.498299 196.289734 5.113945 197.857422 4.720703 C 198.118713 4.655163 198.372147 4.646507 198.617188 4.695313 C 198.862228 4.744118 199.065094 4.825249 199.228516 4.939453 C 199.391937 5.053658 199.506851 5.159863 199.572266 5.257813 C 199.637665 5.355759 199.621414 5.422333 199.523438 5.455078 C 198.739807 5.913033 197.605026 6.420052 196.119141 6.976563 C 194.63324 7.533077 193.032928 8.089794 191.318359 8.646484 C 189.60379 9.203178 187.881271 9.766804 186.150391 10.339844 C 184.419495 10.912884 182.916168 11.46265 181.642578 11.986328 C 181.708496 12.737614 181.759872 13.380947 181.792969 13.919922 C 181.826065 14.458899 181.866516 15.048582 181.916016 15.685547 C 181.96553 16.322512 182.047028 17.106195 182.162109 18.037109 C 182.277176 18.968023 182.449783 20.217331 182.679688 21.785156 C 183.953262 21.228811 184.981857 20.79533 185.765625 20.484375 C 186.549377 20.17342 187.365723 19.887007 188.214844 19.625 C 189.06398 19.362993 190.069107 19.06782 191.228516 18.740234 C 192.387939 18.412647 193.96286 17.95286 195.955078 17.363281 C 196.118439 17.395819 196.316101 17.502155 196.544922 17.681641 C 196.773727 17.861128 196.960236 18.06637 197.107422 18.294922 C 197.254608 18.523474 197.327942 18.751801 197.328125 18.980469 C 197.328308 19.209137 197.214905 19.388683 196.986328 19.519531 C 195.614456 19.683952 194.268036 19.937201 192.945313 20.28125 C 191.622574 20.625298 190.372925 21.019003 189.197266 21.460938 C 188.021606 21.90287 186.928329 22.352409 185.916016 22.810547 C 184.903702 23.268684 184.004425 23.679106 183.220703 24.039063 C 183.287262 25.574348 183.459473 27.058975 183.738281 28.496094 C 184.01709 29.933212 184.394547 31.231329 184.869141 32.390625 C 185.343719 33.549919 185.899506 34.505028 186.537109 35.255859 C 187.174698 36.006691 187.885818 36.448078 188.669922 36.578125 C 189.029312 36.643173 189.536087 36.699562 190.189453 36.748047 C 190.842834 36.796532 191.610397 36.689766 192.492188 36.427734 C 193.373993 36.165703 194.370361 35.683685 195.480469 34.980469 C 196.590591 34.277252 197.814163 33.189816 199.152344 31.71875 C 200.033722 30.934048 200.670578 30.492842 201.0625 30.394531 C 201.454437 30.296221 201.50267 30.443703 201.208984 30.835938 C 200.327728 31.783974 199.519501 32.674229 198.785156 33.507813 C 198.050812 34.341396 197.293243 35.093384 196.509766 35.763672 C 195.726303 36.43396 194.877167 37.013184 193.962891 37.503906 C 193.048599 37.994633 191.987823 38.340153 190.779297 38.537109 C 190.050537 38.694897 189.374542 38.766197 188.751953 38.751953 Z M 208.423828 31.759766 C 208.260452 31.694561 208.104019 31.671051 207.957031 31.6875 C 207.810043 31.703949 207.655518 31.712761 207.492188 31.712891 C 207.328857 31.71302 207.165359 31.662323 207.001953 31.564453 C 206.838531 31.466583 206.675308 31.256226 206.511719 30.929688 C 206.476624 27.859035 206.40834 25.220556 206.308594 23.015625 C 206.208847 20.810694 206.069855 18.752661 205.888672 16.841797 C 205.707504 14.930931 205.485504 13.020172 205.222656 11.109375 C 204.959808 9.198578 204.662628 7.001945 204.333984 4.519531 C 204.333862 4.356197 204.416779 4.250301 204.580078 4.201172 C 204.743378 4.152042 204.94635 4.168526 205.191406 4.25 C 205.436478 4.331474 205.673538 4.454037 205.902344 4.617188 C 206.131134 4.780342 206.326721 4.974586 206.490234 5.203125 C 206.523605 6.085102 206.599258 7.318092 206.714844 8.902344 C 206.830429 10.486591 206.969925 12.226547 207.134766 14.121094 C 207.299591 16.015638 207.473053 17.958641 207.654297 19.951172 C 207.835541 21.943705 207.993011 23.782608 208.125 25.464844 C 208.257004 27.147079 208.355621 28.566944 208.421875 29.726563 C 208.488129 30.886181 208.489014 31.563713 208.423828 31.759766 Z M 133.933594 20.107422 C 135.011444 19.910568 136.293304 19.592569 137.779297 19.150391 C 139.265289 18.708212 140.685745 18.232018 142.041016 17.724609 C 143.396286 17.217201 144.547226 16.69405 145.494141 16.154297 C 146.441055 15.614544 146.898254 15.115513 146.865234 14.658203 L 146.865234 14.21875 C 146.734177 13.728851 146.210007 13.223118 145.294922 12.701172 C 144.379837 12.179226 143.244705 11.688686 141.888672 11.232422 C 140.532639 10.776161 139.061218 10.353638 137.476563 9.962891 C 135.891907 9.572144 134.3647 9.278824 132.894531 9.083984 C 133.026337 10.521221 133.158905 12.155136 133.291016 13.984375 C 133.423141 15.813612 133.637802 17.853647 133.933594 20.107422 Z"/>
    <style>
        @media (prefers-color-scheme:dark){:root{filter:invert(100%)}}
    </style>
</svg>
